
IMDB Link:
N/A

Description:
All't best bits from series 1 to 3 where we all look youngerer apart from Fearne who's always looked like an old lady (only joking she's super F.A.F). Travel back in time to when it first started with appearances from John Bishop, Emma Bunton, Dermot O’Leary, Davina McCall, Paddy McGuiness and my 2 Irish offspring Jedward POTATO! With 'nuff unseen stuff that was never aired cos I said things I shouldn't, outakes, and all those other extra fings you get on a DVD which stands for Digital Versatile Disc. Laugh until ya stop. Mot, mot, mot. All't best, Keith Lemon.

General
Complete name                    : Celebrity.Juice-Too.Juicy.For.Tv.2011.DVDRip.XviD.AC3-SiC.avi
Format                           : AVI
Format/Info                      : Audio Video Interleave
File size                        : 650 MiB
Duration                         : 54mn 8s
Overall bit rate                 : 1 679 Kbps

Video
ID                               : 0
Format                           : MPEG-4 Visual
Format profile                   : Advanced Simple@L5
Format settings, BVOP            : 2
Format settings, QPel            : No
Format settings, GMC             : No warppoints
Format settings, Matrix          : Default (H.263)
Muxing mode                      : Packed bitstream
Codec ID                         : XVID
Codec ID/Hint                    : XviD
Duration                         : 54mn 8s
Bit rate                         : 1 415 Kbps
Width                            : 720 pixels
Height                           : 400 pixels
Display aspect ratio             : 16:9
Frame rate                       : 25.000 fps
Color space                      : YUV
Chroma subsampling               : 4:2:0
Bit depth                        : 8 bits
Scan type                        : Progressive
Compression mode                 : Lossy
Bits/(Pixel*Frame)               : 0.197
Stream size                      : 548 MiB (84%)
Writing library                  : XviD 64

Audio
ID                               : 1
Format                           : AC-3
Format/Info                      : Audio Coding 3
Mode extension                   : CM (complete main)
Codec ID                         : 2000
Duration                         : 54mn 8s
Bit rate mode                    : Constant
Bit rate                         : 256 Kbps
Channel(s)                       : 2 channels
Channel positions                : Front: L R
Sampling rate                    : 48.0 KHz
Bit depth                        : 16 bits
Compression mode                 : Lossy
Stream size                      : 99.1 MiB (15%)
Alignment                        : Aligned on interleaves
Interleave, duration             : 64 ms (1.60 video frames)
Interleave, preload duration     : 192 ms
Title                            : AudioFile_80
 
http://imagestorage.org/images/45948281212958519696.png 
http://imagestorage.org/images/61367888403620047944.png 
http://imagestorage.org/images/33696042038976039662.png 
http://imagestorage.org/images/89389647543984785381.png
